<svg xmlns="http://www.w3.org/2000/svg" fill="none" viewBox="0 0 36 36"><path fill="#605E5C" fill-rule="evenodd" d="M9.5 34h20c.827 0 1.5-.673 1.5-1.5v-29c0-.827-.673-1.5-1.5-1.5h-20C8.673 2 8 2.673 8 3.5v29c0 .827.673 1.5 1.5 1.5zM9 3.5a.5.5 0 0 1 .5-.5h20a.5.5 0 0 1 .5.5v29a.5.5 0 0 1-.5.5h-20a.5.5 0 0 1-.5-.5v-29z" clip-rule="evenodd" opacity=".64"/><path fill="#fff" d="M9.5 33h20a.5.5 0 0 0 .5-.5v-29a.5.5 0 0 0-.5-.5h-20a.5.5 0 0 0-.5.5v29a.5.5 0 0 0 .5.5z"/><path fill="#7719AA" d="M3.5 28h13a1.5 1.5 0 0 0 1.5-1.5v-13a1.5 1.5 0 0 0-1.5-1.5h-13A1.5 1.5 0 0 0 2 13.5v13A1.5 1.5 0 0 0 3.5 28z"/><path fill="#fff" d="M6.167 15.344h1.95l3.829 6.21c.174.279.305.503.393.673h.024c-.037-.235-.055-.66-.055-1.274v-5.61h1.662v9.365h-1.825l-3.972-6.38a4.99 4.99 0 0 1-.356-.66h-.031c.033.288.05.754.05 1.398v5.642h-1.67v-9.364h.001z"/><path fill="#9332BF" d="M33 22h-2v-8h2a1 1 0 0 1 1 1v6a1 1 0 0 1-1 1z"/><path fill="#AE4BD5" d="M33 13h-2V5h2a1 1 0 0 1 1 1v6a1 1 0 0 1-1 1z"/><path fill="#7719AA" d="M33 31h-2v-8h2a1 1 0 0 1 1 1v6a1 1 0 0 1-1 1z"/></svg>