<svg xmlns="http://www.w3.org/2000/svg" viewBox="0 0 24 24"><path d="M12 1A11.033 11.033 0 0 0 1 12l13.749 3.25z" fill="#ed6c47"/><path d="M12 1v11l5.5 3.56L23 12A11.032 11.032 0 0 0 12 1z" fill="#ff8f6b"/><path d="M23 12a11 11 0 0 1-22 0z" fill="#d35230"/><path d="M13 7H2.21c-.073.144-.143.29-.21.437v9.126A10.994 10.994 0 0 0 3.515 19h9.018A1.471 1.471 0 0 0 14 17.533V8a1.003 1.003 0 0 0-1-1z" opacity=".5"/><path d="M13 7H2.21c-.073.144-.143.29-.21.437v9.126A10.994 10.994 0 0 0 3.515 19h9.018A1.471 1.471 0 0 0 14 17.533V8a1.003 1.003 0 0 0-1-1z" opacity=".1"/><rect x="1" y="6" width="12" height="12" rx="1.2" fill="#c43e1c"/><path d="M7.457 8.333a2.782 2.782 0 0 1 1.907.588 2.159 2.159 0 0 1 .662 1.703 2.467 2.467 0 0 1-.327 1.274 2.233 2.233 0 0 1-.931.867 3.025 3.025 0 0 1-1.399.309H6.046v2.593H4.69V8.333zm-1.41 3.62h1.167a1.466 1.466 0 0 0 1.033-.324 1.233 1.233 0 0 0 .349-.948q0-1.212-1.338-1.212H6.046z" fill="#fff"/></svg>