<svg xmlns="http://www.w3.org/2000/svg" fill="none" viewBox="0 0 24 24"><path fill="#fff" d="M5.5 22h13c.275 0 .5-.225.5-.5V7h-3.5c-.827 0-1.5-.673-1.5-1.5V2H5.5c-.275 0-.5.225-.5.5v19c0 .275.225.5.5.5z"/><path fill="#fff" d="M18.293 6 15 2.707V5.5c0 .275.225.5.5.5h2.793z"/><path fill="#605E5C" fill-rule="evenodd" d="m19.56 5.854-4.414-4.415A1.51 1.51 0 0 0 14.086 1H5.5C4.673 1 4 1.673 4 2.5v19c0 .827.673 1.5 1.5 1.5h13c.827 0 1.5-.673 1.5-1.5V6.914c0-.4-.156-.777-.44-1.06zM15 2.707 18.293 6H15.5a.501.501 0 0 1-.5-.5V2.707zM5.5 22h13c.275 0 .5-.225.5-.5V7h-3.5c-.827 0-1.5-.673-1.5-1.5V2H5.5c-.275 0-.5.225-.5.5v19a.5.5 0 0 0 .5.5z" clip-rule="evenodd" opacity=".64"/><path fill="#69AFE5" fill-rule="evenodd" d="M12.5 10h4a.5.5 0 0 0 0-1h-4a.5.5 0 0 0 0 1zm0 2h4a.5.5 0 0 0 0-1h-4a.5.5 0 0 0 0 1z" clip-rule="evenodd"/><path fill="#0078D7" d="M16.5 14h-9a.5.5 0 0 1 0-1h9a.5.5 0 0 1 0 1z"/><path fill="#C8C6C4" fill-rule="evenodd" d="M7.5 16h4a.5.5 0 0 0 0-1h-4a.5.5 0 0 0 0 1zm0 2h4a.5.5 0 0 0 0-1h-4a.5.5 0 0 0 0 1z" clip-rule="evenodd"/><path fill="#0078D7" fill-rule="evenodd" d="M10.124 12H11L9.403 8h-.85L7 12h.853l.33-.909h1.593l.348.909zm-.606-1.583v.001-.001zm0 0-.55-1.484-.538 1.484h1.088z" clip-rule="evenodd"/><path fill="#69AFE5" d="M16 18h-2a1 1 0 0 1-1-1v-1a1 1 0 0 1 1-1h2a1 1 0 0 1 1 1v1a1 1 0 0 1-1 1z"/></svg>