<svg xmlns="http://www.w3.org/2000/svg" viewBox="0 0 24 24"><path d="M7 7l8 1.768L23 7V3a1 1 0 0 0-1-1H8a1 1 0 0 0-1 1v4z" fill="#41a5ee"/><path fill="#2b7cd3" d="M7 12l8 2 8-2V7H7v5z"/><path fill="#185abd" d="M7 17l8 1.368L23 17v-5H7v5z"/><path d="M8 22h14a1 1 0 0 0 1-1v-4H7v4a1 1 0 0 0 1 1z" fill="#103f91"/><path d="M13 7H7v12h5.533A1.471 1.471 0 0 0 14 17.533V8a1.003 1.003 0 0 0-1-1z" opacity=".5"/><path d="M2.11 6h9.78A1.11 1.11 0 0 1 13 7.11V17a1 1 0 0 1-1 1H2.11A1.11 1.11 0 0 1 1 16.89V7.11A1.11 1.11 0 0 1 2.11 6z" fill="#185abd"/><path d="M4.986 13.882q.031.26.041.455h.024q.015-.184.055-.445t.08-.44l1.116-5.119h1.444L8.9 13.376a7.742 7.742 0 0 1 .144.95h.02a7.692 7.692 0 0 1 .12-.92l.924-5.073h1.313l-1.617 7.334H8.27l-1.102-4.859q-.048-.21-.108-.547t-.074-.49h-.02q-.019.178-.074.531-.056.353-.09.522l-1.034 4.843H4.21L2.578 8.333h1.337l1.006 5.13q.034.158.065.419z" fill="#fff"/></svg>